<svg xmlns="http://www.w3.org/2000/svg"  viewBox="0 0 64 64" width="64px" height="64px"><path fill="#F9DD9D" d="M32,43.455c-3.042,0-4.634-5.762-4.634-11.454c0-5.692,1.592-11.455,4.634-11.455 c3.042,0,4.634,5.763,4.634,11.455C36.635,37.692,35.043,43.455,32,43.455z M32,22.545c-0.929,0-2.634,3.59-2.634,9.455 c0,5.865,1.705,9.454,2.634,9.454c0.929,0,2.634-3.589,2.634-9.454C34.635,26.135,32.929,22.545,32,22.545z"/><path fill="#63312D" d="M32.001,43.955c-3.527,0-5.134-6.197-5.134-11.954c0-5.758,1.606-11.955,5.134-11.955 S37.135,26.243,37.135,32C37.135,37.758,35.528,43.955,32.001,43.955z M32.001,21.045c-2.685,0-4.134,5.645-4.134,10.955 c0,5.31,1.449,10.954,4.134,10.954S36.135,37.311,36.135,32C36.135,26.69,34.686,21.045,32.001,21.045z M32.001,41.955 c-1.479,0-3.134-4.257-3.134-9.954c0-5.698,1.654-9.955,3.134-9.955s3.134,4.257,3.134,9.955 C35.135,37.698,33.48,41.955,32.001,41.955z M32.001,23.052c-0.544,0.235-2.134,3.223-2.134,8.949c0,5.812,1.638,8.801,2.157,8.957 c0.473-0.155,2.11-3.145,2.11-8.957C34.135,26.274,32.545,23.287,32.001,23.052z"/><path fill="#F9A287" d="M25.178,39.309C25.178,39.309,25.178,39.309,25.178,39.309c-1.758,0-2.559-0.698-2.921-1.284 c-0.532-0.86-0.733-2.417,1.328-4.953c1.387-1.706,3.51-3.486,5.978-5.012c3.41-2.109,6.872-3.368,9.26-3.368 c1.757,0,2.558,0.698,2.92,1.284c0.532,0.86,0.733,2.417-1.328,4.952c-1.388,1.707-3.511,3.487-5.979,5.013 C31.027,38.049,27.566,39.309,25.178,39.309z M38.823,26.691c-2.001,0-5.147,1.176-8.208,3.069 c-2.283,1.411-4.228,3.035-5.478,4.573c-1.171,1.441-1.347,2.368-1.179,2.639c0.1,0.163,0.474,0.336,1.219,0.336 c0.001,0,0.001,0,0.001,0c2.002,0,5.146-1.176,8.207-3.069c2.283-1.411,4.229-3.035,5.479-4.573 c1.171-1.441,1.347-2.368,1.179-2.639C39.942,26.865,39.569,26.691,38.823,26.691z"/><path fill="#63312D" d="M25.178,39.809L25.178,39.809c-1.988,0-2.917-0.828-3.346-1.521c-0.617-0.999-0.881-2.769,1.365-5.531 c1.423-1.749,3.59-3.568,6.104-5.122c3.485-2.156,7.046-3.443,9.522-3.443c1.987,0,2.916,0.827,3.345,1.521 c0.618,0.998,0.883,2.767-1.364,5.531c-1.423,1.75-3.591,3.569-6.104,5.123C31.215,38.521,27.655,39.809,25.178,39.809z M38.823,25.191c-2.299,0-5.662,1.231-8.997,3.293c-2.421,1.497-4.499,3.238-5.854,4.902c-1.484,1.826-1.931,3.338-1.29,4.375 c0.423,0.685,1.286,1.046,2.495,1.047c2.299,0,5.662-1.231,8.996-3.293c2.421-1.496,4.5-3.237,5.854-4.903 c1.484-1.826,1.931-3.339,1.29-4.374C40.895,25.554,40.031,25.191,38.823,25.191z M25.178,37.809c-0.846,0-1.415-0.199-1.646-0.575 c-0.379-0.608,0.075-1.811,1.217-3.215c1.284-1.581,3.274-3.243,5.604-4.683c3.136-1.939,6.382-3.144,8.471-3.144 c0.844,0,1.412,0.198,1.645,0.572c0.378,0.615-0.077,1.817-1.217,3.218c-1.284,1.581-3.274,3.243-5.604,4.683 C30.513,36.604,27.267,37.809,25.178,37.809z M24.404,36.697c0.092,0.041,0.318,0.112,0.773,0.112c1.914,0,4.958-1.147,7.944-2.995 c2.236-1.382,4.137-2.967,5.354-4.463c0.915-1.125,1.107-1.82,1.121-2.048c-0.093-0.041-0.32-0.112-0.773-0.112 c-1.913,0-4.958,1.147-7.945,2.995c-2.236,1.382-4.137,2.967-5.354,4.463C24.608,35.776,24.417,36.472,24.404,36.697z"/><path fill="#84DBFF" d="M38.823,39.309c-2.388,0-5.85-1.259-9.26-3.368c-2.468-1.526-4.591-3.306-5.978-5.013 c-2.062-2.536-1.86-4.093-1.328-4.953c0.362-0.585,1.163-1.284,2.92-1.284c2.388,0,5.849,1.259,9.259,3.368 c2.468,1.526,4.591,3.306,5.979,5.012c2.061,2.535,1.859,4.093,1.328,4.953C41.381,38.61,40.58,39.309,38.823,39.309z M25.178,26.691c-0.746,0-1.12,0.174-1.22,0.336c-0.167,0.271,0.008,1.198,1.179,2.638c1.25,1.538,3.196,3.162,5.478,4.573 c3.062,1.893,6.207,3.069,8.208,3.069c0.746,0,1.119-0.174,1.219-0.336c0.168-0.271-0.007-1.198-1.179-2.639 c-1.25-1.538-3.196-3.162-5.479-4.573C30.324,27.868,27.18,26.691,25.178,26.691z"/><path fill="#63312D" d="M38.823,39.809c-2.477,0-6.037-1.287-9.522-3.443c-2.514-1.554-4.682-3.374-6.104-5.123 c-2.247-2.764-1.982-4.533-1.364-5.531c0.429-0.694,1.357-1.521,3.345-1.521c2.478,0,6.037,1.287,9.521,3.443 c2.515,1.554,4.683,3.373,6.104,5.122c2.247,2.764,1.982,4.534,1.364,5.531C41.739,38.981,40.811,39.809,38.823,39.809z M25.178,25.191c-1.208,0-2.071,0.362-2.495,1.047c-0.641,1.035-0.194,2.548,1.29,4.374c1.354,1.665,3.433,3.406,5.854,4.903 c3.335,2.063,6.698,3.293,8.997,3.293c1.208,0,2.071-0.362,2.495-1.047c0.641-1.035,0.194-2.547-1.29-4.374 c-1.354-1.665-3.433-3.405-5.854-4.902C30.84,26.422,27.477,25.191,25.178,25.191z M38.823,37.809 c-2.089,0-5.335-1.205-8.471-3.144c-2.33-1.441-4.32-3.104-5.604-4.683c-1.141-1.403-1.595-2.605-1.216-3.217 c0.231-0.375,0.801-0.573,1.645-0.573c2.089,0,5.335,1.205,8.47,3.144c2.329,1.439,4.319,3.102,5.604,4.683 c1.14,1.401,1.595,2.604,1.218,3.217C40.235,37.611,39.667,37.809,38.823,37.809z M24.403,27.303 c0.014,0.227,0.206,0.921,1.121,2.047c1.215,1.495,3.116,3.08,5.354,4.463c2.987,1.847,6.032,2.995,7.945,2.995 c0.453,0,0.681-0.071,0.773-0.112c-0.014-0.228-0.206-0.923-1.121-2.048c-1.217-1.496-3.117-3.081-5.354-4.463 c-2.986-1.847-6.03-2.995-7.944-2.995C24.724,27.191,24.496,27.263,24.403,27.303z"/><polygon fill="#84DBFF" points="22.286,60.808 5.935,60.808 5.935,47.028 10.363,42.6 22.286,42.6"/><path fill="#63312D" d="M22.286,61.308H5.935c-0.276,0-0.5-0.224-0.5-0.5v-13.78c0-0.133,0.053-0.26,0.146-0.354l4.429-4.428 c0.094-0.094,0.221-0.146,0.354-0.146h11.923c0.276,0,0.5,0.224,0.5,0.5v18.208C22.786,61.084,22.562,61.308,22.286,61.308z M6.435,60.308h15.352V43.1H10.57l-4.136,4.135V60.308z"/><polygon fill="#84DBFF" points="19.561,58.083 3.21,58.083 3.21,44.303 7.638,39.875 19.561,39.875"/><polygon fill="#CAF4FF" points="19.561,41.875 19.561,39.875 7.638,39.875 5.638,41.875"/><polygon fill="#CAF4FF" points="5.21,42.304 3.21,44.303 3.21,58.083 5.21,58.083"/><path fill="#63312D" d="M19.562,58.583H3.21c-0.276,0-0.5-0.224-0.5-0.5v-13.78c0-0.133,0.053-0.26,0.146-0.354l4.429-4.428 c0.094-0.094,0.221-0.146,0.354-0.146h11.923c0.276,0,0.5,0.224,0.5,0.5v18.208C20.062,58.36,19.838,58.583,19.562,58.583z M3.71,57.583h15.352V40.375H7.846L3.71,44.51V57.583z"/><polygon fill="#CAF4FF" points="7.638,44.303 3.21,44.303 7.638,39.875"/><path fill="#63312D" d="M7.639,44.803H3.21c-0.202,0-0.385-0.122-0.462-0.309c-0.077-0.187-0.034-0.402,0.108-0.545l4.429-4.428 c0.144-0.144,0.36-0.187,0.545-0.108c0.187,0.077,0.309,0.26,0.309,0.462v4.428C8.139,44.58,7.915,44.803,7.639,44.803z M4.417,43.803h2.722v-2.721L4.417,43.803z"/><path fill="#F8F3F3" d="M6.948,50.094h8.875c0.552,0,1-0.448,1-1c0-0.552-0.448-1-1-1H6.948c-0.552,0-1,0.448-1,1 C5.948,49.646,6.396,50.094,6.948,50.094z"/><path fill="#F8F3F3" d="M6.948,54.709h8.875c0.552,0,1-0.448,1-1c0-0.552-0.448-1-1-1H6.948c-0.552,0-1,0.448-1,1 C5.948,54.261,6.396,54.709,6.948,54.709z"/><path fill="#F8F3F3" d="M12.24,45.479h3.583c0.552,0,1-0.448,1-1c0-0.552-0.448-1-1-1H12.24c-0.552,0-1,0.448-1,1 C11.24,45.031,11.688,45.479,12.24,45.479z"/><path fill="#63312D" d="M15.823,50.594H6.948c-0.827,0-1.5-0.673-1.5-1.5s0.673-1.5,1.5-1.5h8.875c0.827,0,1.5,0.673,1.5,1.5 S16.65,50.594,15.823,50.594z M6.948,48.594c-0.275,0-0.5,0.224-0.5,0.5s0.225,0.5,0.5,0.5h8.875c0.275,0,0.5-0.224,0.5-0.5 s-0.225-0.5-0.5-0.5H6.948z"/><path fill="#63312D" d="M15.823,55.209H6.948c-0.827,0-1.5-0.673-1.5-1.5s0.673-1.5,1.5-1.5h8.875c0.827,0,1.5,0.673,1.5,1.5 S16.65,55.209,15.823,55.209z M6.948,53.209c-0.275,0-0.5,0.224-0.5,0.5s0.225,0.5,0.5,0.5h8.875c0.275,0,0.5-0.224,0.5-0.5 s-0.225-0.5-0.5-0.5H6.948z"/><path fill="#63312D" d="M15.823,45.979H12.24c-0.827,0-1.5-0.673-1.5-1.5s0.673-1.5,1.5-1.5h3.583c0.827,0,1.5,0.673,1.5,1.5 S16.65,45.979,15.823,45.979z M12.24,43.979c-0.275,0-0.5,0.224-0.5,0.5s0.225,0.5,0.5,0.5h3.583c0.275,0,0.5-0.224,0.5-0.5 s-0.225-0.5-0.5-0.5H12.24z"/><path fill="#EFC36A" d="M60.7,60.808V44.105c0-1.1-0.9-2-2-2h-7.19c-1.1,0-2,0.9-2,2v16.703H60.7z"/><path fill="#63312D" d="M60.699,61.308H49.51c-0.276,0-0.5-0.224-0.5-0.5V44.105c0-1.378,1.121-2.5,2.5-2.5h7.189 c1.379,0,2.5,1.122,2.5,2.5v16.703C61.199,61.084,60.976,61.308,60.699,61.308z M50.01,60.308h10.189V44.105 c0-0.827-0.673-1.5-1.5-1.5H51.51c-0.827,0-1.5,0.673-1.5,1.5V60.308z"/><path fill="#F9DD9D" d="M54.695,60.808V44.105c0-1.1-0.9-2-2-2h-1.186c-1.1,0-2,0.9-2,2v16.703H54.695z"/><path fill="#FFEECF" d="M51.509,60.808V44.105c0-0.961,0.687-1.768,1.593-1.957c-0.131-0.027-0.268-0.043-0.407-0.043h-1.186 c-1.1,0-2,0.9-2,2v16.703H51.509z"/><path fill="#F9A287" d="M49.509,60.808V49.781c0-1.102-0.9-2-2-2h-1.186c-1.1,0-2,0.898-2,2v11.027H49.509z"/><path fill="#FFC8BB" d="M46.324,60.808V49.781c0-0.961,0.687-1.77,1.593-1.959c-0.132-0.027-0.268-0.041-0.407-0.041h-1.186 c-1.1,0-2,0.898-2,2v11.027H46.324z"/><path fill="#82D9FF" d="M44.324,60.808v-5.259c0-1.1-0.9-2-2-2h-1.185c-1.1,0-2,0.9-2,2v5.259H44.324z"/><path fill="#CAF4FF" d="M41.14,60.808v-5.259c0-0.959,0.686-1.768,1.592-1.957c-0.132-0.027-0.268-0.043-0.408-0.043h-1.185 c-1.1,0-2,0.9-2,2v5.259H41.14z"/><path fill="#63312D" d="M54.695,61.308H49.51c-0.276,0-0.5-0.224-0.5-0.5V44.105c0-1.378,1.121-2.5,2.5-2.5h1.186 c1.379,0,2.5,1.122,2.5,2.5v16.703C55.195,61.084,54.972,61.308,54.695,61.308z M50.01,60.308h4.186V44.105 c0-0.827-0.673-1.5-1.5-1.5H51.51c-0.827,0-1.5,0.673-1.5,1.5V60.308z"/><path fill="#63312D" d="M49.51,61.308h-5.187c-0.276,0-0.5-0.224-0.5-0.5V49.781c0-1.378,1.121-2.5,2.5-2.5h1.187 c1.379,0,2.5,1.122,2.5,2.5v11.027C50.01,61.084,49.786,61.308,49.51,61.308z M44.823,60.308h4.187V49.781 c0-0.827-0.673-1.5-1.5-1.5h-1.187c-0.827,0-1.5,0.673-1.5,1.5V60.308z"/><path fill="#63312D" d="M44.323,61.308h-5.185c-0.276,0-0.5-0.224-0.5-0.5v-5.259c0-1.378,1.121-2.5,2.5-2.5h1.185 c1.379,0,2.5,1.122,2.5,2.5v5.259C44.823,61.084,44.6,61.308,44.323,61.308z M39.639,60.308h4.185v-4.759 c0-0.827-0.673-1.5-1.5-1.5h-1.185c-0.827,0-1.5,0.673-1.5,1.5V60.308z"/><path fill="#EFC36A" d="M58.82,5.292c1.1,0,2,0.899,2,2v2.844c0,1.1-0.9,2-2,2H40.919c-1.1,0-2-0.9-2-2V7.292c0-1.101,0.9-2,2-2 H58.82z"/><path fill="#63312D" d="M58.819,12.635h-17.9c-1.379,0-2.5-1.122-2.5-2.5V7.292c0-1.378,1.121-2.5,2.5-2.5h17.9 c1.379,0,2.5,1.122,2.5,2.5v2.844C61.319,11.514,60.198,12.635,58.819,12.635z M40.919,5.792c-0.827,0-1.5,0.673-1.5,1.5v2.844 c0,0.827,0.673,1.5,1.5,1.5h17.9c0.827,0,1.5-0.673,1.5-1.5V7.292c0-0.827-0.673-1.5-1.5-1.5H40.919z"/><path fill="#F9DD9D" d="M52.82,5.291c1.1,0,2,0.9,2,2v2.844c0,1.101-0.9,2-2,2H40.919c-1.1,0-2-0.899-2-2V7.291c0-1.1,0.9-2,2-2 H52.82z"/><path fill="#FFEECF" d="M42.919,7.291H54.82c0-1.1-0.9-2-2-2H40.919c-1.1,0-2,0.9-2,2v2.844c0,1.101,0.9,2,2,2V9.291 C40.919,8.191,41.819,7.291,42.919,7.291z"/><path fill="#F8F3F3" d="M44.879,8.712c0,0.564-0.458,1.023-1.022,1.023c-0.564,0-1.021-0.458-1.021-1.023 c0-0.564,0.458-1.021,1.021-1.021C44.421,7.691,44.879,8.148,44.879,8.712z"/><path fill="#F8F3F3" d="M49.84,7.689h-2.118c-0.563,0-1.018,0.456-1.018,1.019s0.456,1.019,1.018,1.019h2.118 c0.563,0,1.019-0.456,1.019-1.019S50.403,7.689,49.84,7.689z"/><path fill="#63312D" d="M52.819,12.634h-11.9c-1.379,0-2.5-1.122-2.5-2.5V7.291c0-1.378,1.121-2.5,2.5-2.5h11.9 c1.379,0,2.5,1.122,2.5,2.5v2.844C55.319,11.513,54.198,12.634,52.819,12.634z M40.919,5.791c-0.827,0-1.5,0.673-1.5,1.5v2.844 c0,0.827,0.673,1.5,1.5,1.5h11.9c0.827,0,1.5-0.673,1.5-1.5V7.291c0-0.827-0.673-1.5-1.5-1.5H40.919z"/><path fill="#63312D" d="M43.856,10.235c-0.839,0-1.521-0.683-1.521-1.522c0-0.839,0.683-1.521,1.521-1.521 c0.84,0,1.522,0.683,1.522,1.521C45.379,9.552,44.696,10.235,43.856,10.235z M43.856,8.191c-0.287,0-0.521,0.234-0.521,0.521 c0,0.288,0.234,0.522,0.521,0.522c0.288,0,0.522-0.234,0.522-0.522C44.379,8.425,44.145,8.191,43.856,8.191z"/><path fill="#63312D" d="M49.84,10.226h-2.117c-0.837,0-1.519-0.681-1.519-1.519s0.682-1.519,1.519-1.519h2.117 c0.838,0,1.52,0.681,1.52,1.519S50.678,10.226,49.84,10.226z M47.723,8.189c-0.286,0-0.519,0.232-0.519,0.519 s0.232,0.519,0.519,0.519h2.117c0.286,0,0.52-0.232,0.52-0.519s-0.233-0.519-0.52-0.519H47.723z"/><path fill="#DB785A" d="M58.82,12.136c1.1,0,2,0.899,2,2v2.844c0,1.1-0.9,2-2,2H40.919c-1.1,0-2-0.9-2-2v-2.844c0-1.101,0.9-2,2-2 H58.82z"/><path fill="#63312D" d="M58.819,19.48h-17.9c-1.379,0-2.5-1.122-2.5-2.5v-2.844c0-1.378,1.121-2.5,2.5-2.5h17.9 c1.379,0,2.5,1.122,2.5,2.5v2.844C61.319,18.358,60.198,19.48,58.819,19.48z M40.919,12.636c-0.827,0-1.5,0.673-1.5,1.5v2.844 c0,0.827,0.673,1.5,1.5,1.5h17.9c0.827,0,1.5-0.673,1.5-1.5v-2.844c0-0.827-0.673-1.5-1.5-1.5H40.919z"/><path fill="#F9A287" d="M52.82,12.135c1.1,0,2,0.9,2,2v2.844c0,1.101-0.9,2-2,2H40.919c-1.1,0-2-0.899-2-2v-2.844c0-1.1,0.9-2,2-2 H52.82z"/><path fill="#FFC8BB" d="M42.919,14.135H54.82c0-1.1-0.9-2-2-2H40.919c-1.1,0-2,0.9-2,2v2.844c0,1.101,0.9,2,2,2v-2.844 C40.919,15.036,41.819,14.135,42.919,14.135z"/><path fill="#F8F3F3" d="M44.879,15.557c0,0.564-0.458,1.022-1.022,1.022c-0.564,0-1.021-0.458-1.021-1.022 c0-0.565,0.458-1.022,1.021-1.022C44.421,14.536,44.879,14.993,44.879,15.557z"/><path fill="#F8F3F3" d="M49.84,14.534h-2.118c-0.563,0-1.018,0.456-1.018,1.019c0,0.562,0.456,1.019,1.018,1.019h2.118 c0.563,0,1.019-0.456,1.019-1.019C50.859,14.99,50.403,14.534,49.84,14.534z"/><path fill="#63312D" d="M52.819,19.479h-11.9c-1.379,0-2.5-1.122-2.5-2.5v-2.844c0-1.378,1.121-2.5,2.5-2.5h11.9 c1.379,0,2.5,1.122,2.5,2.5v2.844C55.319,18.357,54.198,19.479,52.819,19.479z M40.919,12.635c-0.827,0-1.5,0.673-1.5,1.5v2.844 c0,0.827,0.673,1.5,1.5,1.5h11.9c0.827,0,1.5-0.673,1.5-1.5v-2.844c0-0.827-0.673-1.5-1.5-1.5H40.919z"/><path fill="#63312D" d="M43.856,17.08c-0.839,0-1.521-0.683-1.521-1.522c0-0.839,0.683-1.521,1.521-1.521 c0.84,0,1.522,0.683,1.522,1.521C45.379,16.396,44.696,17.08,43.856,17.08z M43.856,15.036c-0.287,0-0.521,0.234-0.521,0.521 c0,0.288,0.234,0.522,0.521,0.522c0.288,0,0.522-0.234,0.522-0.522C44.379,15.27,44.145,15.036,43.856,15.036z"/><path fill="#63312D" d="M49.84,17.071h-2.117c-0.837,0-1.519-0.681-1.519-1.519s0.682-1.519,1.519-1.519h2.117 c0.838,0,1.52,0.681,1.52,1.519S50.678,17.071,49.84,17.071z M47.723,15.034c-0.286,0-0.519,0.232-0.519,0.519 s0.232,0.519,0.519,0.519h2.117c0.286,0,0.52-0.232,0.52-0.519s-0.233-0.519-0.52-0.519H47.723z"/><path fill="#D1D1D1" d="M25.163,18.704c0,1.1-0.9,2-2,2H11.263c-1.101,0-2-0.9-2-2V5.208c0-1.1,0.899-2,2-2h11.901c1.1,0,2,0.9,2,2 V18.704z"/><path fill="#52B8D9" d="M25.163,5.208c0-1.1-0.9-2-2-2H11.263c-1.101,0-2,0.9-2,2v3.423h15.901V5.208z"/><path fill="#63312D" d="M25.163,9.131h-15.9c-0.276,0-0.5-0.224-0.5-0.5V5.208c0-1.378,1.121-2.5,2.5-2.5h11.9 c1.379,0,2.5,1.122,2.5,2.5v3.423C25.663,8.908,25.439,9.131,25.163,9.131z M9.763,8.131h14.9V5.208c0-0.827-0.673-1.5-1.5-1.5 h-11.9c-0.827,0-1.5,0.673-1.5,1.5V8.131z"/><path fill="#63312D" d="M23.163,21.204h-11.9c-1.379,0-2.5-1.122-2.5-2.5V5.208c0-1.378,1.121-2.5,2.5-2.5h11.9 c1.379,0,2.5,1.122,2.5,2.5v13.496C25.663,20.083,24.542,21.204,23.163,21.204z M11.263,3.708c-0.827,0-1.5,0.673-1.5,1.5v13.496 c0,0.827,0.673,1.5,1.5,1.5h11.9c0.827,0,1.5-0.673,1.5-1.5V5.208c0-0.827-0.673-1.5-1.5-1.5H11.263z"/><path fill="#F8F3F3" d="M19.163,18.704c0,1.1-0.9,2-2,2H5.263c-1.101,0-2-0.9-2-2V5.208c0-1.1,0.899-2,2-2h11.901c1.1,0,2,0.9,2,2 V18.704z"/><path fill="#84DBFF" d="M19.163,5.208c0-1.1-0.9-2-2-2H5.263c-1.101,0-2,0.9-2,2v3.423h15.901V5.208z"/><path fill="#CAF4FF" d="M5.263,7.208c0-1.1,0.899-2,2-2h11.901c0-1.1-0.9-2-2-2H5.263c-1.101,0-2,0.9-2,2v3.423h2V7.208z"/><path fill="#F9DD9D" d="M8.432,5.919c0,0.564-0.458,1.022-1.023,1.022c-0.563,0-1.021-0.458-1.021-1.022 c0-0.564,0.458-1.022,1.021-1.022C7.974,4.898,8.432,5.355,8.432,5.919z"/><path fill="#63312D" d="M7.409,7.442c-0.839,0-1.521-0.683-1.521-1.522c0-0.839,0.682-1.521,1.521-1.521 c0.84,0,1.522,0.683,1.522,1.521C8.932,6.759,8.249,7.442,7.409,7.442z M7.409,5.398c-0.287,0-0.521,0.234-0.521,0.521 c0,0.288,0.233,0.522,0.521,0.522c0.288,0,0.522-0.234,0.522-0.522C7.932,5.632,7.697,5.398,7.409,5.398z"/><path fill="#F9DD9D" d="M12.235,5.919c0,0.564-0.458,1.022-1.022,1.022c-0.564,0-1.022-0.458-1.022-1.022 c0-0.564,0.458-1.022,1.022-1.022C11.777,4.898,12.235,5.355,12.235,5.919z"/><path fill="#63312D" d="M11.213,7.442c-0.839,0-1.521-0.683-1.521-1.522c0-0.839,0.683-1.521,1.521-1.521 c0.84,0,1.522,0.683,1.522,1.521C12.735,6.759,12.053,7.442,11.213,7.442z M11.213,5.398c-0.287,0-0.521,0.234-0.521,0.521 c0,0.288,0.234,0.522,0.521,0.522c0.288,0,0.522-0.234,0.522-0.522C11.735,5.632,11.501,5.398,11.213,5.398z"/><path fill="#F9DD9D" d="M16.038,5.919c0,0.564-0.458,1.022-1.022,1.022c-0.564,0-1.021-0.458-1.021-1.022 c0-0.564,0.458-1.022,1.021-1.022C15.58,4.898,16.038,5.355,16.038,5.919z"/><path fill="#63312D" d="M15.016,7.442c-0.839,0-1.521-0.683-1.521-1.522c0-0.839,0.683-1.521,1.521-1.521 c0.84,0,1.522,0.683,1.522,1.521C16.538,6.759,15.855,7.442,15.016,7.442z M15.016,5.398c-0.287,0-0.521,0.234-0.521,0.521 c0,0.288,0.234,0.522,0.521,0.522c0.288,0,0.522-0.234,0.522-0.522C15.538,5.632,15.304,5.398,15.016,5.398z"/><path fill="#63312D" d="M19.163,9.131h-15.9c-0.276,0-0.5-0.224-0.5-0.5V5.208c0-1.378,1.121-2.5,2.5-2.5h11.9 c1.379,0,2.5,1.122,2.5,2.5v3.423C19.663,8.908,19.439,9.131,19.163,9.131z M3.763,8.131h14.9V5.208c0-0.827-0.673-1.5-1.5-1.5 h-11.9c-0.827,0-1.5,0.673-1.5,1.5V8.131z"/><path fill="#63312D" d="M17.163,21.204h-11.9c-1.379,0-2.5-1.122-2.5-2.5V5.208c0-1.378,1.121-2.5,2.5-2.5h11.9 c1.379,0,2.5,1.122,2.5,2.5v13.496C19.663,20.083,18.542,21.204,17.163,21.204z M5.263,3.708c-0.827,0-1.5,0.673-1.5,1.5v13.496 c0,0.827,0.673,1.5,1.5,1.5h11.9c0.827,0,1.5-0.673,1.5-1.5V5.208c0-0.827-0.673-1.5-1.5-1.5H5.263z"/><path fill="#63312D" d="M30.271,15.458c-0.115,0-0.229-0.04-0.32-0.116l-3.079-2.569c-0.114-0.095-0.18-0.235-0.18-0.384 s0.065-0.289,0.18-0.384l3.077-2.567c0.149-0.124,0.357-0.152,0.532-0.069c0.176,0.082,0.288,0.259,0.288,0.453v1.067l4.624-0.001 c0.4,0,0.777,0.156,1.061,0.439c0.284,0.285,0.439,0.662,0.439,1.061c0,0.827-0.673,1.5-1.5,1.5l-4.622,0.002v1.068 c0,0.194-0.112,0.371-0.288,0.453C30.416,15.443,30.344,15.458,30.271,15.458z M27.973,12.389l1.799,1.501v-0.5 c0-0.276,0.224-0.5,0.5-0.5l5.122-0.001v-0.001c0.275,0,0.5-0.224,0.5-0.5c0-0.133-0.053-0.259-0.147-0.354 c-0.094-0.093-0.219-0.146-0.353-0.146l-5.124,0.001c-0.133,0-0.26-0.053-0.354-0.146s-0.146-0.221-0.146-0.354V10.89 L27.973,12.389z"/><path fill="#63312D" d="M33.73,54.678c-0.072,0-0.145-0.016-0.212-0.047c-0.176-0.082-0.288-0.259-0.288-0.453v-1.067l-4.624,0.001 c-0.4,0-0.777-0.156-1.061-0.439c-0.284-0.285-0.439-0.662-0.439-1.061c0-0.827,0.673-1.5,1.5-1.5l4.624-0.002v-1.068 c0-0.194,0.112-0.371,0.288-0.453c0.175-0.081,0.383-0.055,0.532,0.069l3.077,2.569c0.114,0.095,0.18,0.236,0.18,0.384 c0,0.148-0.065,0.289-0.18,0.384l-3.077,2.567C33.959,54.639,33.846,54.678,33.73,54.678z M33.73,52.111 c0.133,0,0.26,0.053,0.354,0.146s0.146,0.221,0.146,0.354v0.499l1.797-1.499l-1.797-1.5v0.5c0,0.276-0.224,0.5-0.5,0.5 l-5.124,0.001v0.001c-0.275,0-0.5,0.224-0.5,0.5c0,0.133,0.053,0.259,0.147,0.354c0.094,0.093,0.219,0.146,0.353,0.146 L33.73,52.111z"/><path fill="#63312D" d="M12.39,37.308L12.39,37.308c-0.148,0-0.289-0.066-0.384-0.18l-2.567-3.077 c-0.124-0.149-0.151-0.356-0.069-0.532c0.083-0.176,0.259-0.288,0.453-0.288h1.067l-0.001-4.624c0-0.4,0.156-0.777,0.439-1.061 c0.285-0.284,0.661-0.439,1.061-0.439c0.827,0,1.5,0.673,1.5,1.5l0.002,4.623h1.068c0.194,0,0.371,0.112,0.453,0.288 s0.055,0.383-0.069,0.532l-2.569,3.078C12.679,37.242,12.538,37.308,12.39,37.308z M10.891,34.23l1.499,1.797l1.501-1.798h-0.5 c-0.276,0-0.5-0.224-0.5-0.5l-0.001-5.123h-0.001c0-0.408-0.56-0.644-0.854-0.353c-0.094,0.094-0.146,0.219-0.146,0.353 l0.001,5.124c0,0.132-0.053,0.26-0.146,0.354s-0.221,0.146-0.354,0.146H10.891z"/><path fill="#63312D" d="M51.612,36.894c-0.827,0-1.5-0.673-1.5-1.5l-0.002-4.623h-1.068c-0.194,0-0.371-0.112-0.453-0.288 s-0.055-0.383,0.069-0.532l2.569-3.078c0.095-0.114,0.235-0.18,0.384-0.18l0,0c0.148,0,0.289,0.066,0.384,0.18l2.567,3.077 c0.124,0.149,0.151,0.356,0.069,0.532c-0.083,0.176-0.259,0.288-0.453,0.288h-1.067l0.001,4.624c0,0.4-0.156,0.777-0.439,1.061 C52.388,36.738,52.012,36.894,51.612,36.894z M50.11,29.771h0.5c0.276,0,0.5,0.224,0.5,0.5l0.001,5.123h0.001 c0.001,0.41,0.561,0.646,0.854,0.353c0.094-0.094,0.146-0.219,0.146-0.353l-0.001-5.124c0-0.132,0.053-0.26,0.146-0.354 s0.221-0.146,0.354-0.146h0.499l-1.499-1.797L50.11,29.771z"/></svg>