<svg xmlns="http://www.w3.org/2000/svg"  viewBox="0 0 64 64" width="64px" height="64px"><rect width="32" height="30" x="16" y="16" fill="#008aa9"/><ellipse cx="32" cy="61" opacity=".3" rx="19" ry="3"/><path fill="#37d0ee" d="M48,20H16c-1.657,0-3-1.343-3-3v-7c0-1.657,1.343-3,3-3h32c1.657,0,3,1.343,3,3v7 C51,18.657,49.657,20,48,20z"/><path fill="#37d0ee" d="M48,37H16c-1.657,0-3-1.343-3-3v-7c0-1.657,1.343-3,3-3h32c1.657,0,3,1.343,3,3v7 C51,35.657,49.657,37,48,37z"/><path fill="#37d0ee" d="M48,54H16c-1.657,0-3-1.343-3-3v-7c0-1.657,1.343-3,3-3h32c1.657,0,3,1.343,3,3v7 C51,52.657,49.657,54,48,54z"/><path fill="#fff" d="M30,12c2.761,0,5-2.239,5-5H16c-1.657,0-3,1.343-3,3v7c0,1.657,1.343,3,3,3v4 c-1.657,0-3,1.343-3,3v7c0,0.738,0.277,1.405,0.719,1.928C16.137,35.576,18,33.515,18,31v-2.416c1.766-0.771,3-2.534,3-4.584v-4 c0-2.05-1.234-3.812-3-4.584V13c0-0.552,0.448-1,1-1H30z" opacity=".3"/><path d="M51,51v-7c0-1.657-1.343-3-3-3v-4c1.657,0,3-1.343,3-3v-7c0-0.738-0.277-1.405-0.719-1.928 C47.863,25.424,46,27.485,46,30v2.416c-1.766,0.771-3,2.534-3,4.584v4c0,2.05,1.234,3.812,3,4.584V48c0,0.552-0.448,1-1,1H35 c-2.761,0-5,2.239-5,5h18C49.657,54,51,52.657,51,51z" opacity=".15"/><polyline fill="none" stroke="#fff" stroke-linecap="round" stroke-linejoin="round" stroke-miterlimit="10" stroke-width="3" points="16.5,14.5 16.5,10.5 19.5,10.5"/><path fill="#9c34c2" d="M57.726,45.677h-1.704c-0.191-0.792-0.503-1.534-0.917-2.211l1.206-1.206	c0.492-0.492,0.492-1.29,0-1.782l-0.801-0.801c-0.492-0.492-1.29-0.492-1.782,0l-1.206,1.206c-0.676-0.413-1.419-0.725-2.211-0.917	v-1.703c0-0.696-0.564-1.26-1.26-1.26h-1.132c-0.696,0-1.26,0.564-1.26,1.26v1.704c-0.792,0.191-1.534,0.503-2.211,0.917	l-1.206-1.206c-0.492-0.492-1.29-0.492-1.782,0l-0.801,0.801c-0.492,0.492-0.492,1.29,0,1.782l1.206,1.206	c-0.413,0.676-0.725,1.419-0.917,2.211h-1.704c-0.696,0-1.26,0.564-1.26,1.26v1.132c0,0.696,0.564,1.26,1.26,1.26h1.704	c0.191,0.792,0.503,1.534,0.917,2.211l-1.206,1.206c-0.492,0.492-0.492,1.29,0,1.782l0.801,0.801c0.492,0.492,1.29,0.492,1.782,0	l1.206-1.206c0.676,0.413,1.419,0.725,2.211,0.917v1.704c0,0.696,0.564,1.26,1.26,1.26h1.132c0.696,0,1.26-0.564,1.26-1.26v-1.704	c0.792-0.191,1.534-0.503,2.211-0.917l1.206,1.206c0.492,0.492,1.29,0.492,1.782,0l0.801-0.801c0.492-0.492,0.492-1.29,0-1.782	l-1.206-1.206c0.413-0.676,0.725-1.419,0.917-2.211h1.704c0.696,0,1.26-0.564,1.26-1.26v-1.132	C58.986,46.241,58.422,45.677,57.726,45.677z M48.486,51.006c-1.935,0-3.503-1.568-3.503-3.503c0-1.935,1.568-3.503,3.503-3.503	c1.935,0,3.503,1.568,3.503,3.503C51.99,49.438,50.42,51.006,48.486,51.006z"/><circle cx="48.486" cy="47.503" r="3.503" fill="#ffa1ac"/></svg>